<svg xmlns="http://www.w3.org/2000/svg" width="109.249" height="88.871" viewBox="0 0 109.249 88.871">
  <g id="college-graduation" transform="translate(0 -36.648)">
    <g id="Layer_5_59_" transform="translate(0 36.648)">
      <g id="Group_2787" data-name="Group 2787" transform="translate(0 0)">
        <path id="Path_1605" data-name="Path 1605" d="M96.116,222.528a14.26,14.26,0,0,1-14.024,0l-31.745-19.4s-2.865-1.75-2.865,2.215v19.375c0,10.206,18.635,21.209,41.622,21.209s41.622-11,41.622-21.209V204.248c0-3.183-2.037-1.627-2.037-1.627Z" transform="translate(-34.48 -157.053)" fill="#652b54"/>
        <path id="Path_1606" data-name="Path 1606" d="M107.419,67.287c2.439-1.491,2.439-3.93,0-5.421l-48.36-24.1a9.355,9.355,0,0,0-8.87,0l-48.36,24.1c-2.439,1.491-2.439,3.93,0,5.421l48.36,29.557a9.355,9.355,0,0,0,8.87,0" transform="translate(0 -36.648)" fill="#652b54"/>
        <path id="Path_1607" data-name="Path 1607" d="M363.805,219.459V186.815s.023-1.546-.9-1.036a26.773,26.773,0,0,0-3.186,1.968,2.732,2.732,0,0,0-.57,2.069v29.642a.871.871,0,0,1-.536.723,5.659,5.659,0,1,0,5.708-.011A.841.841,0,0,1,363.805,219.459Z" transform="translate(-258.386 -145.009)" fill="#652b54"/>
      </g>
    </g>
  </g>
</svg>
