<svg xmlns="http://www.w3.org/2000/svg" width="24.409" height="27.786" viewBox="0 0 24.409 27.786">
  <g id="graduate-student-avatar" transform="translate(-52.032 0)">
    <g id="Group_2789" data-name="Group 2789" transform="translate(52.032 0)">
      <g id="Group_2788" data-name="Group 2788">
        <path id="Path_1611" data-name="Path 1611" d="M73.981,255.935a2.3,2.3,0,0,0-1.343-1l-3.657-1.468-1.757-1.291L64.4,254.624h0l1.218,7.1a.084.084,0,0,1-.019.069l-1.274,1.52a.117.117,0,0,1-.174,0l-1.274-1.52a.084.084,0,0,1-.02-.069l1.218-7.1h0l-2.823-2.447-1.757,1.291-3.657,1.468a2.318,2.318,0,0,0-1.343,1s-3.975,8.249-1.819,8.249H75.8C77.956,264.184,73.981,255.935,73.981,255.935Z" transform="translate(-52.032 -236.397)"/>
        <path id="Path_1612" data-name="Path 1612" d="M98.262,8.228a.214.214,0,0,0,.139-.065.163.163,0,0,0,.044-.132q-.061-.457-.123-.913l-.085-.638a.2.2,0,0,0-.221-.156h-.158l0-2.14.083-.026.276-.087a.523.523,0,0,0,.389-.483A.523.523,0,0,0,98.22,3.1L88.464.031a.671.671,0,0,0-.4,0L78.306,3.1a.523.523,0,0,0-.389.484.523.523,0,0,0,.389.483l3.607,1.136a6.77,6.77,0,0,0-.36,2.4c.063,5.094,3.456,8.131,6.6,8.131,3.1,0,6.532-3.037,6.595-8.131a6.83,6.83,0,0,0-.337-2.33l2.622-.826.006,1.879h-.158a.2.2,0,0,0-.22.156L96.45,8.032a.162.162,0,0,0,.044.132.211.211,0,0,0,.139.065M88.148,14.5c-2.739,0-4.629-2.8-5.01-5.592C82.786,6.32,87.075,6.2,87.325,7.8c.077.493-.572,1.02-.5,1.224.363,1,6.373-3.278,6.332-.122C93.129,11.132,90.758,14.5,88.148,14.5Z" transform="translate(-76.059 0)"/>
      </g>
    </g>
  </g>
</svg>
