<svg xmlns="http://www.w3.org/2000/svg" width="20.084" height="20.085" viewBox="0 0 20.084 20.085">
  <g id="Icon2" transform="translate(0.499 0.577)">
    <path id="Shape" d="M15.2,10.764a1.9,1.9,0,0,0-1.373-.627,1.962,1.962,0,0,0-1.39.623l-1.284,1.274c-.106-.057-.211-.109-.313-.162-.146-.073-.284-.142-.4-.214A13.934,13.934,0,0,1,7.1,8.624,8.191,8.191,0,0,1,6,6.9c.333-.3.642-.619.943-.922.114-.113.228-.231.341-.344a1.851,1.851,0,0,0,0-2.8l-1.109-1.1c-.126-.125-.256-.255-.378-.384-.244-.251-.5-.51-.764-.752A1.927,1.927,0,0,0,3.67,0,2,2,0,0,0,2.288.595L2.28.6.9,1.99A2.954,2.954,0,0,0,.017,3.871a7.063,7.063,0,0,0,.52,3,17.4,17.4,0,0,0,3.108,5.162A19.11,19.11,0,0,0,10.012,17a9.953,9.953,0,0,0,3.576,1.052c.085,0,.175.008.256.008a3.068,3.068,0,0,0,2.345-1c0-.008.012-.012.016-.02a9.215,9.215,0,0,1,.711-.732c.175-.166.354-.34.528-.522a2.014,2.014,0,0,0,.614-1.4,1.94,1.94,0,0,0-.626-1.388Z" transform="translate(0 0.95)" fill="none" stroke="#652b54" stroke-miterlimit="10" stroke-width="1"/>
    <path id="Shape-2" data-name="Shape" d="M4.752,4.752A5.78,5.78,0,0,0,3.129,1.623,5.78,5.78,0,0,0,0,0" transform="translate(10.455 3.802)" fill="none" stroke="#652b54" stroke-linecap="round" stroke-linejoin="round" stroke-miterlimit="10" stroke-width="1"/>
    <path id="Shape-3" data-name="Shape" d="M8.554,8.554A10.4,10.4,0,0,0,5.633,2.921,10.4,10.4,0,0,0,0,0" transform="translate(10.455 0)" fill="none" stroke="#652b54" stroke-linecap="round" stroke-linejoin="round" stroke-miterlimit="10" stroke-width="1"/>
  </g>
</svg>
