<svg id="information" xmlns="http://www.w3.org/2000/svg" width="19.475" height="20.823" viewBox="0 0 19.475 20.823">
  <path id="Path_1620" data-name="Path 1620" d="M9.737,0C4.368,0,0,4.671,0,10.411S4.368,20.823,9.737,20.823s9.737-4.67,9.737-10.411S15.106,0,9.737,0Zm0,18.93A8.266,8.266,0,0,1,1.77,10.411,8.266,8.266,0,0,1,9.737,1.893,8.266,8.266,0,0,1,17.7,10.411,8.266,8.266,0,0,1,9.737,18.93Z" transform="translate(0)" fill="#662c55"/>
  <path id="Path_1621" data-name="Path 1621" d="M146.182,70a1.265,1.265,0,1,0,1.18,1.263A1.225,1.225,0,0,0,146.182,70Z" transform="translate(-136.445 -65.583)" fill="#662c55"/>
  <path id="Path_1622" data-name="Path 1622" d="M150.885,140a.917.917,0,0,0-.885.946v5.679a.887.887,0,1,0,1.77,0v-5.679A.917.917,0,0,0,150.885,140Z" transform="translate(-141.148 -131.166)" fill="#662c55"/>
</svg>
