<svg id="instagram_1_" data-name="instagram (1)" xmlns="http://www.w3.org/2000/svg" width="35.132" height="35.428" viewBox="0 0 35.132 35.428">
  <g id="Group_2792" data-name="Group 2792">
    <g id="Group_2791" data-name="Group 2791">
      <path id="Path_1618" data-name="Path 1618" d="M24.153,0H10.979A11.026,11.026,0,0,0,0,11.071V24.357A11.026,11.026,0,0,0,10.979,35.428H24.153A11.026,11.026,0,0,0,35.132,24.357V11.071A11.026,11.026,0,0,0,24.153,0Zm7.685,24.357a7.726,7.726,0,0,1-7.685,7.75H10.979a7.726,7.726,0,0,1-7.685-7.75V11.071a7.726,7.726,0,0,1,7.685-7.75H24.153a7.726,7.726,0,0,1,7.685,7.75Z" fill="#652b54"/>
    </g>
  </g>
  <g id="Group_2794" data-name="Group 2794" transform="translate(8.783 8.857)">
    <g id="Group_2793" data-name="Group 2793">
      <path id="Path_1619" data-name="Path 1619" d="M136.783,128a8.857,8.857,0,1,0,8.783,8.857A8.821,8.821,0,0,0,136.783,128Zm0,14.393a5.536,5.536,0,1,1,5.489-5.536A5.52,5.52,0,0,1,136.783,142.393Z" transform="translate(-128 -128)" fill="#652b54"/>
    </g>
  </g>
  <g id="Group_2796" data-name="Group 2796" transform="translate(25.837 7.013)">
    <g id="Group_2795" data-name="Group 2795">
      <ellipse id="Ellipse_28" data-name="Ellipse 28" cx="1.17" cy="1.18" rx="1.17" ry="1.18" fill="#652b54"/>
    </g>
  </g>
</svg>
