<svg id="Layer_5_59_" xmlns="http://www.w3.org/2000/svg" width="60.456" height="50.785" viewBox="0 0 60.456 50.785">
  <g id="Group_2787" data-name="Group 2787" transform="translate(0 0)">
    <path id="Path_1605" data-name="Path 1605" d="M74.4,213.834a7.674,7.674,0,0,1-7.761,0L49.068,202.747s-1.586-1-1.586,1.266v11.072c0,5.832,10.312,12.12,23.033,12.12s23.033-6.287,23.033-12.12v-11.7c0-1.819-1.127-.93-1.127-.93Z" transform="translate(-40.287 -176.418)" fill="#fff"/>
    <path id="Path_1606" data-name="Path 1606" d="M59.444,54.156a1.691,1.691,0,0,0,0-3.1L32.682,37.287a5.033,5.033,0,0,0-4.909,0L1.012,51.058a1.691,1.691,0,0,0,0,3.1L27.774,71.047a5.033,5.033,0,0,0,4.909,0" transform="translate(0 -36.648)" fill="#fff"/>
    <path id="Path_1607" data-name="Path 1607" d="M360.239,204.981V186.327s.013-.884-.5-.592a14.742,14.742,0,0,0-1.763,1.125,1.6,1.6,0,0,0-.316,1.182v16.939a.5.5,0,0,1-.3.413,3.236,3.236,0,0,0-1.547,2.777,3.133,3.133,0,1,0,6.263,0,3.236,3.236,0,0,0-1.558-2.784A.479.479,0,0,1,360.239,204.981Z" transform="translate(-301.901 -162.437)" fill="#fff"/>
  </g>
</svg>
