<svg xmlns="http://www.w3.org/2000/svg" width="31" height="30.164" viewBox="0 0 31 30.164">
  <path id="linkedin" d="M28.2,0H2.8A2.767,2.767,0,0,0,0,2.729V27.435a2.767,2.767,0,0,0,2.8,2.729H28.2A2.767,2.767,0,0,0,31,27.435V2.729A2.767,2.767,0,0,0,28.2,0ZM9.593,26.045a.805.805,0,0,1-.816.794H5.3a.805.805,0,0,1-.816-.794V11.876a.805.805,0,0,1,.816-.794H8.777a.805.805,0,0,1,.816.794ZM7.04,9.746a3.257,3.257,0,0,1-3.3-3.211,3.257,3.257,0,0,1,3.3-3.211,3.257,3.257,0,0,1,3.3,3.211A3.256,3.256,0,0,1,7.04,9.746ZM27.747,26.109a.74.74,0,0,1-.75.73H23.269a.74.74,0,0,1-.75-.73V19.463c0-.991.3-4.345-2.663-4.345-2.3,0-2.763,2.3-2.857,3.325v7.666a.74.74,0,0,1-.75.73H12.643a.74.74,0,0,1-.75-.73v-14.3a.74.74,0,0,1,.75-.73h3.605a.74.74,0,0,1,.75.73v1.236c.852-1.244,2.118-2.2,4.813-2.2,5.969,0,5.935,5.426,5.935,8.407v6.858Z" fill="#0077b7"/>
</svg>
