<svg xmlns="http://www.w3.org/2000/svg" xmlns:xlink="http://www.w3.org/1999/xlink" width="375" height="375.042" viewBox="0 0 375 375.042">
  <defs>
    <clipPath id="clip-path">
      <path id="Path_116" data-name="Path 116" d="M298.233,364.332l25.11,4.9-1.014,5.707h4.565l10.949-62.437,2.536,62.437H344.9l-.845-21.052,11.5-.338,1.184,21.39h2.24L357.8,353.51l17.2-.465v-4.481l-14.161.38-1.1-7.567,15.26.465V339.6l-15.6-.465-2.114-14.669,9.215-10.146,8.455,5.369v-2.705l-6.933-4.4,6.933-7.651V301.6l-18.135,20.037c-.972-5.538-3.382-19.657-4.4-25.617L375,299.866V295.3l-11.245-1.945,2.663-16.782c3,.634,5.876,1.226,8.581,1.776v-4.608l-6.425-1.31L375,264.273v-7.313l-11.329,14.457L349,268.373l6.256-43.879,19.7,3.551v-7.609l-2.071-.38,2.071-14.161V175.035l-2.283,15.641L351.708,185.6c1.057-5.538,3.847-20.206,4.9-25.786l18.346,3.466v-4.565l-11.836-2.24,9.342-50.854,2.494.465V98.437l-6.13-1.141,1.649-11.456,4.481-.93V82.627l-4.143.845,3.635-25.279.507.085V1.8L373.6,11.145l-14.034.845L358.936-.058H356.7l.676,12.217-11.921.719L344.9-.058h-4.523l.55,13.231L324.4,14.188,326.894-.058h-4.565l-2.41,13.823L294.978,7.129l1.31-7.186h-7.609l-2.536,13.781L268.98,16.64l-2.114-16.7h-4.523L264.5,17.359l-16.782,2.832L240.531,5.522c4.27-1.226,11.456-3.34,19.234-5.58H243.659l-5.115,1.48-.761-1.48h-8.37l1.733,3.551c-2.621.719-6.13,1.691-9.6,2.663-.55-1.522-1.31-3.762-2.2-6.256h-2.367l2.41,6.848c-4.185,1.141-7.905,2.2-9.385,2.621L199.188,5.987l.719-6.045h-2.283l-.592,5.369-13.823-4.27.38-1.1h-4.777L177,4.888,165.159-.058h-4.143l-3.678,9.427L140.387,3.493q1.078-1.775,2.029-3.551h-5.242a93.528,93.528,0,0,1-8.243,12.217L126.9-.058h-4.565l.55,3.382L111.6,10.045l-5.96-10.1h-2.621L117.01,23.657c-.338.211-.676.465-.972.676-4.481,2.917-10.314,5.073-16.994,6.679l2.24-31.07h-2.24l-2.283,31.62c-2.452.55-4.988.972-7.609,1.395L86.7-.058H82.178l.8,11.16L55.969,7.8,55.8-.058H51.277L51.446,7.3l-6.214-.761L38.553-.058H35.34L41.6,6.072,18.854,3.324l.423-3.382H16.994l-.38,3.086-9.046-1.1.3-1.987H.254L0,1.8V58.278l19.445,3.551,3.34,16.064L0,82.627V84.91l6.806-1.437L9,100.128,0,98.437v7.651l9.892,1.86L2.367,159.056,0,158.633V163.2l1.691.338L0,175.035v30.859l6.13-41.512,21.179,3.974-5.622,55.969L0,220.436v7.609L19.91,231.6,0,256.959v7.271l19.741-25.194L14.33,276.7,0,273.742v4.608c5.791,1.184,10.653,2.2,13.7,2.832l-2.283,16.064L0,295.3v4.565l1.353.254L0,301.557v3.34l3.974-4.4,6.806,1.184L7.863,321.975,0,316.986v2.663l7.525,4.777-2.2,15.3L0,339.56v2.24l4.988.169-.93,6.425L0,348.522V353l3.424-.085L.254,374.9H7.82l3.086-21.643,8.581,1.141-2.536,20.5h2.283l1.733-14.035L35.34,374.9h3.213l-17.2-16.867.423-3.34L50.9,358.583l.38,16.317H55.8l-.38-15.725,25.871,3.466.888,12.259H86.7l-.465-6.3,13.443-2.283-.634,8.624h2.24l.169-2.579,1.522,2.579H105.6l-3.847-6.552.169-2.452,18.389-3.128,2.029,12.132H126.9L120.561,336.9l32.043,2.452c-3.509,10.737-8.666,23.926-15.43,35.593h5.242a167.767,167.767,0,0,0,7.4-15.218l14.88,5.707-3.72,9.511h4.143l-1.48-.634,7.482-19.149,13.7,3.213-6,16.529h4.777L195,343.534l6.214-.761-3.593,32.169h2.283l1.437-12.851,10.188-2.79,5.5,15.641h2.367c-2.114-5.96-4.735-13.443-5.707-16.233l6.848-1.86,8.877,18.093h8.37l-3.8-7.778,29.844-9.258-1.649,11.667L243.659,374.9h16.106c.845-.254,1.649-.465,2.494-.719l.085.719h4.523l-.254-1.987c9.173-2.663,18.219-5.284,23.63-6.89l-1.649,8.877H296.2Zm-4.058-19.445-23.5-3.213,2.367-16.613,24.011,4.1Zm-50.262-29.337,1.606-9.131,24.983,4.692-1.268,8.75ZM268.6,324.3l-1.015,7.1-16.529-2.367,1.649-7.4Zm-83.4-8.877-11.075-.3,1.691-9.554L185.2,310.1a17.779,17.779,0,0,0-.211,2.621A11.51,11.51,0,0,0,185.2,315.422Zm3.424,7.609a15.018,15.018,0,0,0,1.987,2.029l-8.455,11.118-7.99-13.569Zm-.592-19.868-21.348-10.272,23.208-8.5,3.509,13.992A16.541,16.541,0,0,0,188.028,303.163Zm-148.081-23.8,2.748-6.172,34.156-8.159L71.99,282.069Zm30.944,7.144-2.283,11.71L60.281,296.1l.592-10.441ZM23.334,38.453c7.567.55,16.4,1.057,25.617,1.184l-.085,2.24L22.235,50.12Zm-9.215-5.326L16.655,18.88l24.476,3.086c-.254,2.663-.93,9.342-1.268,12.851C30.056,34.437,21.094,33.8,14.119,33.126ZM72.159,63.14l2.917,25.913c-6.679.761-26.759,3.086-33.9,3.931L44.3,65.8ZM48.74,44.286l-.719,16.655-5.665.55-5.242-.972L35.594,48.344ZM75.287,91.293l1.057,9.342-36.608,4.481,1.141-9.85ZM229.5,89.476l-4.143,14.669-17.078,6.595c-2.494-6.975-4.481-13.823-5.58-17.966ZM206.037,75.314l13.1-1.606,1.437,9.3-13.485,1.649Zm65.142,95.409L255.326,167l7.9-24.729,13.612,2.536C275.871,149.376,273.461,160.409,271.179,170.723Zm7.9-25.533,16.74,3.128-21.9,20.46Zm-149.518,5.157,25.913-2.452,2.832,11.245-31.028.93Zm0-19.572,23.715,8.285,1.1,4.4-22.869,2.156Zm117.9,36.185-4.227,13.231-18.473-7.313,4.946-12.386Zm-16.951-8.539,4.27-10.737c6.341,3.635,12.513,6.848,16.064,8.624l-2.705,8.5Zm-12.09,18.219-8.666-7.355,10.441-14.8,5.453,3.974Zm-.888,2.2-.423,1.057-21.813,1.86-10.949-14.584,10.864-7.313Zm-24.434,3.8-18.431,10.61-4.227-16.7,12.048-8.074C184.478,171.146,190.9,179.685,193.1,182.644ZM182.956,165.4c-.93-1.184-2.705-3.424-3.974-5.03l9.089-6.552,5.326,4.523Zm-1.86,1.268-11.245,7.567-1.564-6.13,8.877-6.383Zm-12.132,34.579-19.826-5.876,14.88-13.654ZM146.6,194.607,121.026,187l5.749-24.687,32.127-.93,4.523,17.881Zm-27.815-47.768-3.509-29.718,10.019-1.48,3.974,30.183Zm-.211,4.523,8.624-.8-4.143,17.8-8.539-2.748Zm3.974,19.192-3.678,15.81-9.427-2.79,4.481-15.768ZM120.1,191.437l-12.174,33.142-9.046-3.762,9.342-32.93Zm2.156.634,11.709,3.466-5.03,15.049c-3.34-1.014-9.554-2.959-12.09-3.762Zm10.23,22.066c2.283.8,6.256,2.2,10.949,3.847l-7.4,16.951-10.061-1.184Zm.676-2.156,5.073-15.176,17.374,5.157-4.185,16.4Zm24.6-9.342,12.428,3.72,5.157,20.418-21.813-7.651Zm17.459-7.1,9.6-5.538,4.692,16.74-12.259-3.128Zm11.625-6.721,8.285-4.777,21.094-1.818L204.9,210.586l-12.809-3.255Zm27.9,9.258,10.1,3.382-3.635,13.4-11.921-3.044Zm.8-2.114,8.37-20.967,18.6,7.355-6.552,20.418Zm27.773,8.455,18.854,3.382-15.81,26.378-9.723-8.835Zm2.325-7.186,9-28.111,16.064,3.8c-1.606,7.4-3.086,14.077-3.762,17.29l-14.034,8.328Zm27.012-22.658,6.721,8.2-9.765,5.791ZM252.24,152c-7.482-3.8-24.476-12.766-32.3-19.488a12.974,12.974,0,0,1-1.1-1.057l18.093-15.514,20.291,20.5Zm-27.266-31.7-5.918-11.329,6.975-2.705,7.651,6.51Zm-1.775,1.522-7.06,6.087a80.059,80.059,0,0,1-7.1-15.007l7.9-3.044Zm-6.172,14.119a101.1,101.1,0,0,0,13.823,9.469l-4.312,10.864L205.7,141.175l9.638-6.933A21.259,21.259,0,0,0,217.027,135.933Zm1.353,17.2-10.357,14.669-18.05-15.3,13.781-9.934ZM190.9,146.29l-4.016-13.358,9.976-4.777,4.185,10.864Zm-4.692-15.556L183,120.081l7.06-9.6,6,15.514Zm.845,18.3-19.91,14.33-7.186-28.534,21.6-4.143Zm-27.689-16.359-8.454-33.607,20.333-2.494,9.638,31.916ZM152.6,136.44l-23.377-8.159L127.536,115.3l19.023-2.832Zm-37.58-21.559-1.353-11.245L143.389,100l2.621,10.315ZM112.36,96.239l-2.283-9.723L141.824,88l1.184,4.481Zm1.606,48.064L92.619,119.785l-.888-13.443,17.459-2.156ZM90.886,98.86l-1.522-9.638c6.045-.93,12.851-1.987,16.19-2.494l2.367,10.061Zm-1.4,7.736.845,12.64-9.469.93.338-12.513Zm1.564,14.8L113.629,147.3l-33.564,3.17.719-28.111C83.827,122.11,89.28,121.56,91.055,121.391Zm22.7,30.436L95.24,216.97l-9.089-5.115,19.319-59.266ZM97.607,225.17l23.165,9.68-2.579,7.736L95.578,232.23Zm12.344.3L116,208.98l12.174,3.762-5.96,17.839Zm15.218,10.4,10.23,1.226-2.325,15.176-10.864-7.44Zm12.6.55,7.778-17.712c6.13,2.156,13.147,4.608,19.192,6.721L157.93,260.13l-8.624,3.3-14.2-9.765Zm34.241,23.123,3.8,13.654-16.021,6.679-7.313-12.851Zm-11.583-.38,6.468-33.015c3.678,1.268,6.89,2.409,9.173,3.213l5.5,21.728Zm18.093-50.6,25.025,6.383-6.468,8.539-13.823,3.931Zm27.435,7.017,23.63,6.045-26.336,13.4-4.185-10.357Zm17.416-.211,3.593-13.231,8.328,2.79-4.016,12.47Zm12.513,12.344,21.136,19.149-1.564,3c-10.695-2.071-20.079-3.847-25.11-4.819Zm12.174,7.99,16.486-27.477,11.414,2.071-17.924,34.494Zm30.267-25.025,3.635.676-7.1,42.23c-5.707-1.1-11.54-2.24-17.12-3.3Zm1.268,28.449,18.515,4.439-2.24,14.077c-5.58-1.057-12.048-2.325-18.769-3.593Zm2.79,20.5,12.555,2.41-5.58,23.25L279,283.168Zm14.8,2.832,11.752,2.24-4.354,23.63L291.6,285.7Zm.888-4.4L300.3,243.9l12.259.972L309.731,260.3C306.983,259.749,302.925,258.989,298.064,258.059Zm2.579-16.4,1.522-9.469,12.428,1.733-1.606,8.75Zm1.86-11.71,2.283-14.5,12.724,2.283-2.579,13.95Zm-4.058,11.371-18.473-4.4L284.2,211.77l18.431,3.3Zm-38.764-41.6,22.574-13.4,16.7,20.46ZM284.2,185.138l29.337-17.459,6.552,7.99-29.379,17.374Zm-2.875-3.509-7.736-9.469,24.729-23.039,12.344,15.091Zm17.881-49.078-17.585-2.325c.55-3.34,1.057-6.425,1.31-8.032L300.3,125.7Zm-.338,2.24-1.48,9.258-17.459-3.3c.338-2.029.845-5.157,1.353-8.328Zm-21.179,5.58-13.062-2.452L270.46,119.7l10.272,2.071Zm-18.9-8.75-18.431-18.642,14.415-12.386,11.963,6.13Zm-23.377-20.333-7.9-6.721,4.354-15.387,26.885-3.3a16.428,16.428,0,0,0,1.649,3.974Zm-10.357-28.83-3.551-22.869,15.26-2.367L240.362,80.6Zm-12.428,48.191-9.68,6.975-11.287-29.253L199.4,97.888C201.978,106.934,206.755,121.73,212.631,130.649Zm-30.436-13.231L175.769,96.07l22.4-2.748c.127.55.3,1.141.465,1.775Zm-3.551-29.295-7.229.888-12.3-19.741,19.572-3.044Zm-9.68,1.184-18.769,2.283,7.44-20.46ZM146.6,88.334,136.54,49.486l21.474,7.567Zm-5.326-2.621-17.459-.8-4.65-26.251,14.753-1.395Zm-19.784-.93-11.921-.55L103.948,60.1l12.935-1.226Zm-16.444-.254L88.984,86.981l-1.522-9.638,15.429-2.071Zm-16.4,14.626-7.82.972L79.768,90.7c1.733-.254,4.4-.676,7.355-1.141ZM79.937,155.04l23.081-2.2L91.266,188.858l-12.09-4.946ZM90.59,191.014l-6.552,20.122-5.5-.888.634-23.884Zm-7.271,22.278-5.284,16.233.423-17.036C80.064,212.742,82.051,213.081,83.319,213.292Zm2.114.761,9.173,5.157-9.723,34.241-7.4-3.551.338-12.47Zm9.554,20.375,22.489,10.315-7.017,21.009L89.026,255.438Zm26.463,12.6L146.77,264.4l-21.813,8.328-10.441-5.03Zm2.832,33.691,19.995,9.638-5.2,9.723-17.754-3.847Zm6.256-5.284,19.826-7.567,7.355,12.893-8.666,3.593Zm45.908-.042,2.917,10.484-15.472,5.665-12.132-5.876Zm-2.325-16.655,8.5-3.255,6.721,26.674-7.9,2.875Zm9.723-29.126,13.274-3.762,12.724,31.408-17.628,5.5Zm20.249,7.482,24.983-12.724-13.316,41.554Zm24.856,12.259,21.39,4.1-4.1,23.123L221.8,271.628Zm20.925,32.55,24.1,4.861-1.86,13.147-23.292-12.048Zm.761-4.439,4.1-23.165,23.25,4.481L274.6,282.323Zm27.773,10.188,25.364,5.115-2.494,13.612-24.856-4.9Zm28.238,30.775,10.864,1.395-3.382,17.289-10.695-1.353Zm.423-2.2,4.988-27.139,11.118,1.9-5.2,26.632Zm5.791-31.578,3.382-18.473c3.509.719,9.3,1.944,16.148,3.34l-4.016,17.755Zm4.227-22.87,4.185-22.827,26.843,3.762-3.551,24.772Zm3.34-51.15-18.093-3.255L292.1,194.861l29.379-17.374,4.354,5.326Zm9.6-25.7,18.642,4.523c-1.057,5.242-3.72,18.811-5.03,25.363l-18.769-3.382Zm-3.044-7.863-22.066-27.012L331.29,155Zm-25.194-32.169,4.439-27.646,31.493,4.565L332.093,150.6ZM318.693,114.5l2.579-18.473,20.714,3.889-3.424,17.459Zm1.522-26.336-8.5-1.606,2.705-15.3,8.581.93Zm-1.141,7.44c-.719,5.157-1.987,14.33-2.579,18.558l-9.511-1.395,3.044-18.9Zm-11.794-9.85-16.233-3.044c0-.338.042-.634.042-.972a16.969,16.969,0,0,0-1.353-6.552l15.3-9.215,4.185,9Zm-1.733,7.313-4.861,30.394-29.506-5.918,6.3-19.657a16.427,16.427,0,0,0,11.371-7.947Zm-30.9-2.452a8.92,8.92,0,1,1,8.919-8.92A8.921,8.921,0,0,1,274.645,90.617Zm-4.9,6.764-2.325,7.186-10.822-5.538,6.552-5.622A16.742,16.742,0,0,0,269.741,97.381ZM258.624,78.358,242.645,80.3l-3.635-23.419,17.078-2.663,7.524,15.387A16.439,16.439,0,0,0,258.624,78.358ZM217.831,55.615l-1.141-8.962,32.634-6.172,4.65,9.511Zm-.761,4.692,1.733,11.2-13.02,1.564-1.226-10.822ZM204.9,84.952l-23.969,2.917.042-21.982,21.39-3.34ZM181.688,61.237l7.694-27.562,9.469,3.593L193.4,59.42Zm-2.452.38-19.234,3,13.485-36.946,13.781,5.2Zm-20.46-6.679L147.743,51.05l3.889-13.908,11.836,4.9Zm-13.147-4.65-9.765-3.466L131.13,28.561l18.431,7.694Zm-12.893,2.536-30.774,2.959-1.395-9.934L129.4,40.1ZM102.342,73.074,87.081,75.1,84.968,61.914l14.457-1.395Zm-17.12,4.565,1.564,9.68-7.229,1.1-1.1-9.892Zm-7.06-1.31L76.64,62.717l6.087-.592L84.841,75.4ZM76.64,108.16,76.3,120.546c-3.593.338-10.78.972-13.7,1.226l.465-11.963Zm-18.6,73.47-.38,10.145c-2.536-.085-8.581-.3-11.118-.423l.465-10.526Zm-10.188-5.2L58.97,158.464l-.719,18.684Zm9.723,17.585-.465,12.048c-3.678-.719-7.482-1.48-11.118-2.2l.465-10.272Zm-.634,14.33-1.86,15.091-11.752-3.044L45.7,206.148Zm-.634,23.546,6.552,1.649-.676,8.92L55.377,239.2Zm.3-2.24,2.579-20.883,5.5,1.1L63.071,231.3Zm10.23-19.361,7.144,1.4-.93,36.016-8.666-4.185Zm-7.482-3.762.465-12.386c2.917.169,10.737.634,14.584.845l-.38,14.415C71.06,208.811,65.522,207.712,59.351,206.528ZM59.9,191.9l.38-10.1L74.7,182.813l-.254,9.892Zm.592-14.584.845-22.024,14.119-1.015-.634,24.053Zm.93-24.307.338-8.835,13.95.38L75.5,152Zm.507-13.358.592-15.641,13.7-1.226-.423,17.247ZM40.455,112.6,60.873,110.1,60.408,121.9l-20.883-.211Zm19.868,11.5-.592,15.472-21.939-.55,1.522-15.091Zm-.8,19.995-.38,9.765-7.186,11.583-14.922-18.9.3-3.086Zm-8.793,23.419-5.411,8.708-11.16-.8,2.579-25.659ZM44.767,180.7l-1.015,22.743c-4.9-.972-9.3-1.818-12.174-2.41L33.691,179.9ZM30.352,137.962l-9.046-1.268,4.481-25.744L32.93,112.3Zm.972,65.353,12.174,2.41-4.312,25.7L29,226.523Zm11.667,19.276,11.836,3.086L53.306,238.19l-11.963-5.749Zm11.371,24.434,24.264,11.71-1.1,3.847-33.691,8.032ZM80.7,259.707l11.921,5.749L87.377,283.38l-13.147-1.1Zm16.021,7.736,10.272,4.946L99.467,303.8l-12.935-1.353Zm17.839,40.2-1.1,5.749-29.929-.845,2.325-7.9Zm-12.851-3.635,7.355-30.648,11.033,5.326L114.981,305.4Zm19.192-5.538,31.874,6.891-1.141,9.131-33.607-.972Zm20.46,2.114,4.946-9.215,11.075,5.326-3.931,6.51Zm13.739,4.27,4.354-7.144,14.2,6.848-1.86,10.484-17.924-.507Zm46.246-1.057a8.919,8.919,0,1,1-8.92,8.919A8.921,8.921,0,0,1,201.344,303.8Zm4.481-6.848a15.725,15.725,0,0,0-4.481-.634h-.676l-7.947-31.409,17.924-5.58,4.016,9.934Zm14.584-21.01,25.025,5.073-.38,2.2L214.66,303.163a17.522,17.522,0,0,0-2.2-2.494Zm24.1,10.314-5.03,28.534-21.813-3.72a15.814,15.814,0,0,0-1.818-5.96Zm6,34.96-1.691,7.482-20.037-2.875,3.847-7.609ZM245.9,304.178l2.494-13.992,23.377,12.09-.93,6.637Zm51.953,20.544-24.18-4.143,2.41-16.909,24.729,4.861Zm11.5,37.158-10.314-2.029,4.016-21.9,10.653,1.353ZM324.1,364.8l-10.357-2.029,6.552-33.691,9.68,2.156Zm6.3-35.8-9.638-2.114,6.848-35.129,9.046,1.564Zm28.111,19.953-14.669.423-.38-9.68,11.879-13.1C356.062,331.7,357.8,343.83,358.514,348.945Zm-3.593-25.237-11.583,12.766L341.6,294.117l8.454,1.437Zm7.06-48.022L359.275,292.6l-28.661-4.9,3.974-17.712C343.084,271.755,352.891,273.784,361.98,275.686Zm-13.57-35.213-26.758-3.72,3.255-17.67,25.913,4.65Zm8.835-23.25-11.414-2.029,2.325-11.794,11.2,2.24Zm11.2,2.029-9-1.606,2.156-11.583,8.539,1.733ZM372,195.115l-1.522,10.441-21.855-4.4,2.2-11.2Zm-22.489-10.1-18.642-4.523,4.819-24.687,18.727,3.509Zm11.414-29-24.391-4.565,4.058-20.883,24.1,4.861ZM373.309,13.427l-2.579,18.05-10.061-.169-.93-17.036Zm-12.766,22.4,9.511.169-5.115,35.636-7.694-.042Zm-3.466,38,7.567.042-3.17,22.066-6.341-1.184Zm-4.185,20.5-4.227-.8L346.3,35.578l11.963.211ZM357.457,14.4l.93,16.867-12.259-.211-.634-15.894ZM346.424,100.72l23.842,4.481-5.157,27.984-24.1-4.861Zm-2.283-8.032L322.455,88.63c.845-4.9,2.283-13.274,2.79-16.19l18.177,1.945ZM343.3,72.059l-28.534-3.044,2.114-12.174,25.744-.254ZM324.019,16.471l16.994-1.057.676,16.74-20.418-.169Zm-3.128,17.754,20.883.169.8,19.995-25.279.254ZM294.555,9.369,319.5,16.006l-2.705,15.3-24.983-7.355Zm21.9,24.18L310.534,67.2l-18.98-41Zm-26.378.169L304.067,63.9l-15.387,9.258a16.663,16.663,0,0,0-4.9-5.115Zm-4.4-17.628-9.089,49.374c-.55-.042-1.057-.085-1.606-.127l-5.749-46.5ZM264.8,19.6l5.749,46.246a1,1,0,0,1-.338.085L248.774,22.3ZM233.218,7.636,248.309,38.41l-14.88,2.832L223.072,10.468ZM220.874,11.06c2.156,6.341,8.581,25.533,10.314,30.563l-14.8,2.79-3.931-31.028ZM213.35,56.334l-17.585,2.748,5.157-20.967,10.61,4.016Zm-2.114-16.74L190.1,31.562l4.988-10.906L209.5,25.9ZM198.3,10.426l9.638,3,1.268,9.934-13.316-4.819ZM181.645,5.269l14.5,4.481L193.439,18.8l-5.411,11.921-13.781-5.242ZM162.834,1.422,176.234,7l-2.875,7.9-13.908-4.819Zm-4.819,12.935L171.8,19.134l-7.567,20.8-11.963-4.988ZM137.935,7.425,155.9,13.639,150.152,34.1l-19.784-8.2-1.691-6.51A87.382,87.382,0,0,0,137.935,7.425ZM112.741,11.99l10.568-6.3L125.127,16.6a56.6,56.6,0,0,1-6.256,5.749Zm5.749,16.148A49.079,49.079,0,0,0,125,23.065l3.847,14.88-28.576,5.707-1.1-7.947C106.738,33.887,113.375,31.435,118.49,28.138Zm-21.517,7.99L99.763,56,69.834,58.87l-1.48-19.4A192.464,192.464,0,0,0,96.973,36.128ZM83.361,15.71l1.31,17.881a242.061,242.061,0,0,1-28.027,1.564L56.1,12.413Zm-17.289,23.8,1.522,19.53L50.3,60.688l.888-21.009C56.1,39.721,61.084,39.678,66.072,39.509ZM44.64,10.975l6.933.845.211,9.215-8.2-1.015C43.837,17.993,44.344,13.639,44.64,10.975Zm7.229,12.344.3,11.794c-3.382-.042-6.764-.085-10.019-.211L43.372,22.22ZM6.933,6.368,42.442,10.68l-1.057,9.046L5.665,15.245ZM5.326,17.485l9.089,1.141L11.879,32.915c-3.593-.338-6.51-.676-8.624-.93ZM19.234,57.222.127,53.713,2.621,36.466c3.847.465,10.357,1.184,18.473,1.818Zm2.705-4.692L33.4,48.978,34.79,60.054,21.432,57.6Zm-.127,9.765,17.966,3.3-4.565,39.525-4.735-.888ZM9.046,83.05l14.161-2.959,4.9,23.63-16.782-3.17ZM6.764,159.9l7.525-51.107,9.3,1.733-8.877,50.854Zm10.188,1.9,4.016-22.912,9.215,1.31-2.367,23.63Zm11.033,72.5L50.3,245.039l-15.091,33.9L21.77,277.8Zm-6.848,47.979,35.3,3-.592,10.441L18.811,298.64Zm34.537,15.725-.8,13.739-9.215-.254V298.809Zm-37.2,2.917,24.941-1.987v12.428l-26.336-.719Zm13.316,50.6-20.206-2.705L14.626,327.6l19.107,2.621ZM14.964,325.356l1.057-7.229,18.811.549-.845,9.342Zm25.913,27.393-6.848-.93,1.945-21.263,7.06.972Zm2.367-23.461-7.1-.972.888-9.554,7.271.211ZM53.306,354.4l-7.947-1.057,2.156-21.39,7.313.423Zm-5.58-24.687,1.1-10.653,29.337.845.845,11.583Zm7.82,24.983L57.11,332.5l22.066,1.268,1.775,24.349Zm23.334-42.273-19.488-.55.761-13.443,21.221,5.411Zm-8.074-13.654,2.367-12.09,12.935,1.1-4.058,13.865ZM82.685,320.03l30.69.888,1.31,7.9-31.155,2.663Zm.972,13.654,31.366-2.663,1.9,11.456-32.381,3.509Zm2.41,32.677-1.184-15.852,32.761-3.551,2.283,13.612Zm34.114-31.789L117.94,321l39.652,1.141c-.845,3.424-2.283,8.666-4.27,14.965Zm45.358,28.7L150.7,357.61c.93-2.24,1.818-4.439,2.621-6.637l15.6,3.678Zm-10.653-16.529a248.189,248.189,0,0,0,7.313-24.476l9.3.254,9.131,15.556-9.469,12.47Zm31.493,7.4-12.851-3,8.793-11.583,8.116,3.34Zm4.861-13.358-7.482-3.086,8.581-11.287a15.067,15.067,0,0,0,3.509,1.733Zm4.65.423,4.4-12.09a8.5,8.5,0,0,0,1.057.042,16.346,16.346,0,0,0,5.2-.845l5.326,10.822Zm5.707,18.473,1.9-17.2,9.385-1.226,6.637,13.527Zm18.262-21.263L212.927,324.3a16.286,16.286,0,0,0,4.565-8.708l12.851,2.2Zm13.1,26.674-3.931-7.99,13.1-3.762,2.114,8.2Zm31.2-9.68-17.755,5.5-2.114-8.159,21.094-6.045Zm1.945-13.569L227.046,353l-5.918-12.048,6.594-13.02,39.567,5.707Zm.761,26.336,3.128-22.024,10.991,1.522-2.579,17.163Zm24.307-7.1-10.357,3,2.452-16.19,10.1,1.4Z" transform="translate(0 0.1)" fill="#fff"/>
    </clipPath>
  </defs>
  <g id="map" transform="translate(0 -43)">
    <rect id="Rectangle_385" data-name="Rectangle 385" width="375" height="200" transform="translate(0 43)" fill="#652b54" opacity="0.3"/>
    <g id="Mask_Group_6" data-name="Mask Group 6" transform="translate(0 43)" opacity="0.2" clip-path="url(#clip-path)">
      <rect id="Rectangle_386" data-name="Rectangle 386" width="375" height="212" fill="#fff"/>
    </g>
  </g>
</svg>
