<svg xmlns="http://www.w3.org/2000/svg" width="34.408" height="35.881" viewBox="0 0 34.408 35.881">
  <g id="twitter" transform="translate(-0.001)">
    <ellipse id="Ellipse_26" data-name="Ellipse 26" cx="17.204" cy="17.94" rx="17.204" ry="17.94" transform="translate(0.001 0)" fill="#55acee"/>
    <g id="Group_2790" data-name="Group 2790" transform="translate(7.699 10.882)">
      <path id="Path_1614" data-name="Path 1614" d="M45.147,36.039a7.943,7.943,0,0,1-2.362.674,4.273,4.273,0,0,0,1.808-2.372,8.03,8.03,0,0,1-2.611,1.04,4.032,4.032,0,0,0-3-1.354,4.2,4.2,0,0,0-4.112,4.288,4.456,4.456,0,0,0,.107.977A11.522,11.522,0,0,1,26.5,34.812a4.41,4.41,0,0,0-.557,2.156,4.339,4.339,0,0,0,1.829,3.569A3.956,3.956,0,0,1,25.908,40c0,.018,0,.036,0,.054a4.25,4.25,0,0,0,3.3,4.2,3.963,3.963,0,0,1-1.857.074,4.142,4.142,0,0,0,3.841,2.978,8.038,8.038,0,0,1-5.108,1.836,7.945,7.945,0,0,1-.98-.06,11.288,11.288,0,0,0,6.3,1.927c7.564,0,11.7-6.534,11.7-12.2,0-.186,0-.371-.012-.555a8.546,8.546,0,0,0,2.052-2.219Z" transform="translate(-25.103 -34.028)" fill="#f1f2f2"/>
    </g>
  </g>
</svg>
